<mxfile host="app.diagrams.net" modified="2023-05-05T11:42:07.873Z" agent="Mozilla/5.0 (X11; Linux x86_64) AppleWebKit/537.36 (KHTML, like Gecko) Chrome/112.0.0.0 Safari/537.36" etag="06mDBgnNfC_JZegquS0_" version="21.2.9" type="device">
  <diagram name="Page-1" id="ho2ljs2TCubYTARmbkhM">
    <mxGraphModel dx="1434" dy="775" grid="1" gridSize="10" guides="1" tooltips="1" connect="1" arrows="1" fold="1" page="1" pageScale="1" pageWidth="850" pageHeight="1100" math="0" shadow="0">
      <root>
        <mxCell id="0" />
        <mxCell id="1" parent="0" />
        <mxCell id="LXk-njT1kU-8zGU9tHjD-24" style="edgeStyle=orthogonalEdgeStyle;rounded=0;orthogonalLoop=1;jettySize=auto;html=1;entryX=0.5;entryY=1;entryDx=0;entryDy=0;" edge="1" parent="1" source="LXk-njT1kU-8zGU9tHjD-28" target="LXk-njT1kU-8zGU9tHjD-34">
          <mxGeometry relative="1" as="geometry">
            <mxPoint x="130" y="220" as="targetPoint" />
          </mxGeometry>
        </mxCell>
        <mxCell id="LXk-njT1kU-8zGU9tHjD-25" value="&lt;font style=&quot;font-size: 14px;&quot;&gt;1&lt;/font&gt;" style="edgeLabel;html=1;align=center;verticalAlign=middle;resizable=0;points=[];fontSize=12;" vertex="1" connectable="0" parent="LXk-njT1kU-8zGU9tHjD-24">
          <mxGeometry x="0.2444" y="-3" relative="1" as="geometry">
            <mxPoint x="-18" y="15" as="offset" />
          </mxGeometry>
        </mxCell>
        <mxCell id="LXk-njT1kU-8zGU9tHjD-26" style="edgeStyle=orthogonalEdgeStyle;rounded=0;orthogonalLoop=1;jettySize=auto;html=1;" edge="1" parent="1" source="LXk-njT1kU-8zGU9tHjD-28" target="LXk-njT1kU-8zGU9tHjD-39">
          <mxGeometry relative="1" as="geometry">
            <Array as="points">
              <mxPoint x="275" y="380" />
              <mxPoint x="275" y="380" />
            </Array>
          </mxGeometry>
        </mxCell>
        <mxCell id="LXk-njT1kU-8zGU9tHjD-27" value="&lt;font style=&quot;font-size: 14px;&quot;&gt;2&lt;/font&gt;" style="edgeLabel;html=1;align=center;verticalAlign=middle;resizable=0;points=[];" vertex="1" connectable="0" parent="LXk-njT1kU-8zGU9tHjD-26">
          <mxGeometry x="0.2667" y="3" relative="1" as="geometry">
            <mxPoint x="-15" y="-17" as="offset" />
          </mxGeometry>
        </mxCell>
        <mxCell id="LXk-njT1kU-8zGU9tHjD-53" style="rounded=0;orthogonalLoop=1;jettySize=auto;html=1;edgeStyle=orthogonalEdgeStyle;" edge="1" parent="1" source="LXk-njT1kU-8zGU9tHjD-28" target="LXk-njT1kU-8zGU9tHjD-52">
          <mxGeometry relative="1" as="geometry">
            <Array as="points">
              <mxPoint x="130" y="440" />
              <mxPoint x="830" y="440" />
              <mxPoint x="830" y="140" />
            </Array>
          </mxGeometry>
        </mxCell>
        <mxCell id="LXk-njT1kU-8zGU9tHjD-55" style="edgeStyle=orthogonalEdgeStyle;rounded=0;orthogonalLoop=1;jettySize=auto;html=1;" edge="1" parent="1" source="LXk-njT1kU-8zGU9tHjD-28" target="LXk-njT1kU-8zGU9tHjD-47">
          <mxGeometry relative="1" as="geometry">
            <Array as="points">
              <mxPoint x="20" y="400" />
              <mxPoint x="20" y="50" />
              <mxPoint x="545" y="50" />
            </Array>
          </mxGeometry>
        </mxCell>
        <mxCell id="LXk-njT1kU-8zGU9tHjD-28" value="" style="ellipse;whiteSpace=wrap;html=1;shadow=0;labelBackgroundColor=none;fillStyle=auto;fontFamily=Helvetica;fontSize=12;gradientDirection=north;" vertex="1" parent="1">
          <mxGeometry x="55" y="340" width="150" height="80" as="geometry" />
        </mxCell>
        <mxCell id="LXk-njT1kU-8zGU9tHjD-29" style="rounded=0;orthogonalLoop=1;jettySize=auto;html=1;edgeStyle=orthogonalEdgeStyle;entryX=0.5;entryY=0;entryDx=0;entryDy=0;" edge="1" parent="1" source="LXk-njT1kU-8zGU9tHjD-33" target="LXk-njT1kU-8zGU9tHjD-44">
          <mxGeometry relative="1" as="geometry">
            <Array as="points">
              <mxPoint x="45" y="379" />
              <mxPoint x="45" y="80" />
              <mxPoint x="370" y="80" />
            </Array>
            <mxPoint x="355" y="110" as="targetPoint" />
          </mxGeometry>
        </mxCell>
        <mxCell id="LXk-njT1kU-8zGU9tHjD-30" value="&lt;font style=&quot;font-size: 14px;&quot;&gt;3&lt;/font&gt;" style="edgeLabel;html=1;align=center;verticalAlign=middle;resizable=0;points=[];" vertex="1" connectable="0" parent="LXk-njT1kU-8zGU9tHjD-29">
          <mxGeometry x="0.2122" y="4" relative="1" as="geometry">
            <mxPoint x="250" y="14" as="offset" />
          </mxGeometry>
        </mxCell>
        <mxCell id="LXk-njT1kU-8zGU9tHjD-33" value="ServerHeistMuseum&lt;br&gt;ConcSite" style="ellipse;whiteSpace=wrap;html=1;shadow=0;labelBackgroundColor=none;fillStyle=auto;strokeColor=default;fontFamily=Helvetica;fontSize=12;fontColor=default;fillColor=#969696;gradientColor=none;gradientDirection=north;" vertex="1" parent="1">
          <mxGeometry x="65" y="347.5" width="130" height="62.5" as="geometry" />
        </mxCell>
        <mxCell id="LXk-njT1kU-8zGU9tHjD-34" value="scon" style="ellipse;whiteSpace=wrap;html=1;shadow=0;labelBackgroundColor=none;fillStyle=auto;fontFamily=Helvetica;fontSize=12;gradientDirection=north;" vertex="1" parent="1">
          <mxGeometry x="77.5" y="110" width="105" height="60" as="geometry" />
        </mxCell>
        <mxCell id="LXk-njT1kU-8zGU9tHjD-35" style="rounded=0;orthogonalLoop=1;jettySize=auto;html=1;entryX=0.308;entryY=1.014;entryDx=0;entryDy=0;entryPerimeter=0;" edge="1" parent="1" source="LXk-njT1kU-8zGU9tHjD-39" target="LXk-njT1kU-8zGU9tHjD-47">
          <mxGeometry relative="1" as="geometry" />
        </mxCell>
        <mxCell id="LXk-njT1kU-8zGU9tHjD-36" value="&lt;font style=&quot;font-size: 14px;&quot;&gt;6&lt;/font&gt;" style="edgeLabel;html=1;align=center;verticalAlign=middle;resizable=0;points=[];" vertex="1" connectable="0" parent="LXk-njT1kU-8zGU9tHjD-35">
          <mxGeometry x="0.1504" y="-1" relative="1" as="geometry">
            <mxPoint x="22" y="-8" as="offset" />
          </mxGeometry>
        </mxCell>
        <mxCell id="LXk-njT1kU-8zGU9tHjD-37" value="" style="edgeStyle=orthogonalEdgeStyle;rounded=0;orthogonalLoop=1;jettySize=auto;html=1;" edge="1" parent="1" source="LXk-njT1kU-8zGU9tHjD-39" target="LXk-njT1kU-8zGU9tHjD-48">
          <mxGeometry relative="1" as="geometry">
            <Array as="points">
              <mxPoint x="545" y="383" />
              <mxPoint x="545" y="383" />
            </Array>
          </mxGeometry>
        </mxCell>
        <mxCell id="LXk-njT1kU-8zGU9tHjD-38" value="&lt;font style=&quot;font-size: 14px;&quot;&gt;7&lt;/font&gt;" style="edgeLabel;html=1;align=center;verticalAlign=middle;resizable=0;points=[];" vertex="1" connectable="0" parent="LXk-njT1kU-8zGU9tHjD-37">
          <mxGeometry x="-0.25" y="3" relative="1" as="geometry">
            <mxPoint x="15" y="-7" as="offset" />
          </mxGeometry>
        </mxCell>
        <mxCell id="LXk-njT1kU-8zGU9tHjD-39" value="concSiteInter" style="ellipse;whiteSpace=wrap;html=1;shadow=0;labelBackgroundColor=none;fillStyle=auto;fontFamily=Helvetica;fontSize=12;gradientDirection=north;" vertex="1" parent="1">
          <mxGeometry x="315" y="348.75" width="110" height="62.5" as="geometry" />
        </mxCell>
        <mxCell id="LXk-njT1kU-8zGU9tHjD-40" style="rounded=0;orthogonalLoop=1;jettySize=auto;html=1;entryX=1;entryY=0.5;entryDx=0;entryDy=0;" edge="1" parent="1" source="LXk-njT1kU-8zGU9tHjD-44" target="LXk-njT1kU-8zGU9tHjD-34">
          <mxGeometry relative="1" as="geometry">
            <mxPoint x="195" y="185" as="targetPoint" />
          </mxGeometry>
        </mxCell>
        <mxCell id="LXk-njT1kU-8zGU9tHjD-41" value="&lt;font style=&quot;font-size: 14px;&quot;&gt;4&lt;/font&gt;" style="edgeLabel;html=1;align=center;verticalAlign=middle;resizable=0;points=[];rotation=0;" vertex="1" connectable="0" parent="LXk-njT1kU-8zGU9tHjD-40">
          <mxGeometry x="-0.1247" relative="1" as="geometry">
            <mxPoint x="-11" y="-15" as="offset" />
          </mxGeometry>
        </mxCell>
        <mxCell id="LXk-njT1kU-8zGU9tHjD-42" style="rounded=0;orthogonalLoop=1;jettySize=auto;html=1;" edge="1" parent="1" source="LXk-njT1kU-8zGU9tHjD-44" target="LXk-njT1kU-8zGU9tHjD-39">
          <mxGeometry relative="1" as="geometry" />
        </mxCell>
        <mxCell id="LXk-njT1kU-8zGU9tHjD-43" value="&lt;font style=&quot;font-size: 14px;&quot;&gt;5&lt;/font&gt;" style="edgeLabel;html=1;align=center;verticalAlign=middle;resizable=0;points=[];" vertex="1" connectable="0" parent="LXk-njT1kU-8zGU9tHjD-42">
          <mxGeometry x="0.302" y="4" relative="1" as="geometry">
            <mxPoint x="6" y="17" as="offset" />
          </mxGeometry>
        </mxCell>
        <mxCell id="LXk-njT1kU-8zGU9tHjD-44" value="cliProxy" style="ellipse;whiteSpace=wrap;html=1;shadow=0;labelBackgroundColor=none;fillStyle=auto;strokeColor=default;fontFamily=Helvetica;fontSize=12;fontColor=default;fillColor=#969696;gradientColor=none;gradientDirection=north;" vertex="1" parent="1">
          <mxGeometry x="315" y="107.5" width="110" height="65" as="geometry" />
        </mxCell>
        <mxCell id="LXk-njT1kU-8zGU9tHjD-58" style="edgeStyle=orthogonalEdgeStyle;rounded=0;orthogonalLoop=1;jettySize=auto;html=1;entryX=0;entryY=0.5;entryDx=0;entryDy=0;" edge="1" parent="1" source="LXk-njT1kU-8zGU9tHjD-47" target="LXk-njT1kU-8zGU9tHjD-52">
          <mxGeometry relative="1" as="geometry" />
        </mxCell>
        <mxCell id="LXk-njT1kU-8zGU9tHjD-59" value="&lt;font style=&quot;font-size: 14px;&quot;&gt;8&lt;/font&gt;" style="edgeLabel;html=1;align=center;verticalAlign=middle;resizable=0;points=[];" vertex="1" connectable="0" parent="LXk-njT1kU-8zGU9tHjD-58">
          <mxGeometry x="0.3208" y="-2" relative="1" as="geometry">
            <mxPoint x="-16" y="-22" as="offset" />
          </mxGeometry>
        </mxCell>
        <mxCell id="LXk-njT1kU-8zGU9tHjD-47" value="concentrationSite" style="ellipse;whiteSpace=wrap;html=1;shadow=0;labelBackgroundColor=none;fillStyle=auto;fontFamily=Helvetica;fontSize=12;gradientDirection=north;" vertex="1" parent="1">
          <mxGeometry x="490" y="110" width="110" height="60" as="geometry" />
        </mxCell>
        <mxCell id="LXk-njT1kU-8zGU9tHjD-48" value="outMessage, inMessage" style="ellipse;whiteSpace=wrap;html=1;shadow=0;labelBackgroundColor=none;fillStyle=auto;fontFamily=Helvetica;fontSize=12;gradientDirection=north;" vertex="1" parent="1">
          <mxGeometry x="530" y="348.75" width="110" height="61.25" as="geometry" />
        </mxCell>
        <mxCell id="LXk-njT1kU-8zGU9tHjD-50" value="&lt;font style=&quot;font-size: 17px;&quot;&gt;1 -&amp;nbsp; instantiate, start, accept, end&lt;br&gt;2 -&amp;nbsp; instantiate&lt;br&gt;3 -&amp;nbsp; instantiate, start&lt;br&gt;4 -&amp;nbsp; readObject, writeObject, close&lt;br&gt;5 -&amp;nbsp; processAndReply&lt;br&gt;6 -&amp;nbsp; startOperations, appraiseSit, waitForThieves, amINeeded, assignAssaultPartyID, assignRoomID,&lt;br&gt;&lt;span style=&quot;&quot;&gt;	&lt;/span&gt;&lt;span style=&quot;&quot;&gt;	&lt;/span&gt;&lt;span style=&quot;white-space: pre;&quot;&gt;	&lt;/span&gt;setAssignedRoomID, buildParty, preapreAssaultParty, prepareExcursion, sendAssaultParty,&amp;nbsp;&lt;br&gt;&lt;span style=&quot;&quot;&gt;	&lt;/span&gt;&lt;span style=&quot;&quot;&gt;	&lt;/span&gt;&lt;span style=&quot;white-space: pre;&quot;&gt;	&lt;/span&gt;roomStates, setAssignAPid, sumUpResults, shutdown&lt;br&gt;7 -&amp;nbsp; getMsgType, getMasterState, getOrdinaryID, gitOrdinaryTState, getAssignAssaultPId, getAssaultPBuild, &lt;br&gt;&lt;span style=&quot;&quot;&gt;	&lt;/span&gt;&lt;span style=&quot;&quot;&gt;	&lt;/span&gt;&lt;span style=&quot;white-space: pre;&quot;&gt;	&lt;/span&gt;getAssignRoomId, getnCanvasCollected, getRoomID, getRoomState, getAssaultPState&lt;br&gt;8 -&amp;nbsp; setMasterThiefState, setOTState, setAParty_Elem_ID, setAssaultParty_RId, setOTSituation, setStolenPaintings&lt;br&gt;9 -&amp;nbsp; instantiate, open, writeObject, readObject, close&lt;br&gt;&lt;br&gt;&lt;br&gt;&lt;/font&gt;" style="text;html=1;strokeColor=none;fillColor=none;align=left;verticalAlign=middle;whiteSpace=wrap;rounded=0;" vertex="1" parent="1">
          <mxGeometry x="15" y="490" width="820" height="320" as="geometry" />
        </mxCell>
        <mxCell id="LXk-njT1kU-8zGU9tHjD-60" style="rounded=0;orthogonalLoop=1;jettySize=auto;html=1;entryX=0.733;entryY=-0.012;entryDx=0;entryDy=0;entryPerimeter=0;" edge="1" parent="1" source="LXk-njT1kU-8zGU9tHjD-52" target="LXk-njT1kU-8zGU9tHjD-48">
          <mxGeometry relative="1" as="geometry" />
        </mxCell>
        <mxCell id="LXk-njT1kU-8zGU9tHjD-64" style="rounded=0;orthogonalLoop=1;jettySize=auto;html=1;" edge="1" parent="1" source="LXk-njT1kU-8zGU9tHjD-52" target="LXk-njT1kU-8zGU9tHjD-63">
          <mxGeometry relative="1" as="geometry" />
        </mxCell>
        <mxCell id="LXk-njT1kU-8zGU9tHjD-52" value="reposStub" style="ellipse;whiteSpace=wrap;html=1;shadow=0;labelBackgroundColor=none;fillStyle=auto;fontFamily=Helvetica;fontSize=12;gradientDirection=north;" vertex="1" parent="1">
          <mxGeometry x="690" y="110" width="110" height="60" as="geometry" />
        </mxCell>
        <mxCell id="LXk-njT1kU-8zGU9tHjD-56" value="&lt;font style=&quot;font-size: 14px;&quot;&gt;2&lt;/font&gt;" style="edgeLabel;html=1;align=center;verticalAlign=middle;resizable=0;points=[];" vertex="1" connectable="0" parent="1">
          <mxGeometry x="220" y="411.25" as="geometry">
            <mxPoint x="335" y="-333" as="offset" />
          </mxGeometry>
        </mxCell>
        <mxCell id="LXk-njT1kU-8zGU9tHjD-57" value="&lt;font style=&quot;font-size: 14px;&quot;&gt;2&lt;/font&gt;" style="edgeLabel;html=1;align=center;verticalAlign=middle;resizable=0;points=[];" vertex="1" connectable="0" parent="1">
          <mxGeometry x="330" y="330" as="geometry">
            <mxPoint x="486" y="-213" as="offset" />
          </mxGeometry>
        </mxCell>
        <mxCell id="LXk-njT1kU-8zGU9tHjD-62" value="&lt;font style=&quot;font-size: 14px;&quot;&gt;2&lt;/font&gt;" style="edgeLabel;html=1;align=center;verticalAlign=middle;resizable=0;points=[];" vertex="1" connectable="0" parent="1">
          <mxGeometry x="170" y="470" as="geometry">
            <mxPoint x="486" y="-213" as="offset" />
          </mxGeometry>
        </mxCell>
        <mxCell id="LXk-njT1kU-8zGU9tHjD-63" value="com" style="ellipse;whiteSpace=wrap;html=1;shadow=0;labelBackgroundColor=none;fillStyle=auto;fontFamily=Helvetica;fontSize=12;gradientDirection=north;" vertex="1" parent="1">
          <mxGeometry x="710" y="347.5" width="105" height="62.5" as="geometry" />
        </mxCell>
        <mxCell id="LXk-njT1kU-8zGU9tHjD-65" value="&lt;font style=&quot;font-size: 14px;&quot;&gt;9&lt;/font&gt;" style="edgeLabel;html=1;align=center;verticalAlign=middle;resizable=0;points=[];" vertex="1" connectable="0" parent="1">
          <mxGeometry x="280" y="480" as="geometry">
            <mxPoint x="486" y="-213" as="offset" />
          </mxGeometry>
        </mxCell>
      </root>
    </mxGraphModel>
  </diagram>
</mxfile>
